<svg width="107" height="38" viewBox="0 0 107 38" fill="none" xmlns="http://www.w3.org/2000/svg">
<g clip-path="url(#clip0_2_16)">
<path d="M0 14.6055C0 20.9797 5.14226 25.9749 11.7003 25.9749C13.4907 25.9945 15.2615 25.6011 16.8752 24.8251C18.4888 24.0491 19.9017 22.9115 21.0042 21.5007L21.3535 21.0532L17.3452 18.1481L17.0264 18.5832C16.4115 19.4154 15.6083 20.0901 14.6826 20.5524C13.7569 21.0148 12.735 21.2515 11.7003 21.2432C9.93988 21.2432 8.25155 20.5439 7.00673 19.2991C5.76191 18.0543 5.06258 16.3659 5.06258 14.6055C5.06258 12.8451 5.76191 11.1567 7.00673 9.9119C8.25155 8.66709 9.93988 7.96775 11.7003 7.96775C12.737 7.95622 13.7601 8.20421 14.6764 8.68914C15.5928 9.17407 16.3732 9.88054 16.9468 10.7442L17.2716 11.21L21.3474 8.1455L21.0042 7.70421C19.9017 6.29336 18.4888 5.15574 16.8752 4.37976C15.2615 3.60378 13.4907 3.21034 11.7003 3.23001C5.14226 3.23614 0 8.22517 0 14.6055Z" fill="#747474"/>
<path d="M33.7832 3.23615C27.219 3.23615 22.0645 8.22518 22.0645 14.6055C22.0645 20.9858 27.2006 25.9749 33.7648 25.9749C40.329 25.9749 45.4652 20.9797 45.4652 14.6055C45.4652 8.23131 40.3474 3.23615 33.7832 3.23615ZM33.7832 21.2432C32.4676 21.2566 31.1777 20.8787 30.0773 20.1575C28.9769 19.4363 28.1156 18.4044 27.6029 17.1927C27.0901 15.9811 26.949 14.6444 27.1975 13.3524C27.4459 12.0604 28.0728 10.8713 28.9983 9.93627C29.9239 9.00121 31.1064 8.3623 32.3958 8.10067C33.6852 7.83903 35.0233 7.96649 36.2401 8.46684C37.457 8.96719 38.4976 9.81787 39.23 10.9109C39.9624 12.0038 40.3535 13.2898 40.3535 14.6055C40.3395 16.35 39.6448 18.02 38.4176 19.2598C37.1903 20.4997 35.5275 21.2113 33.7832 21.2432Z" fill="#747474"/>
<path d="M57.6865 12.3377C57 11.6451 47.9045 2.4516 47.9045 2.4516V25.5458H52.8078V13.4839L57.6619 18.5158L62.5161 13.4839V25.5458H67.4194V2.4516L57.6865 12.3377Z" fill="#747474"/>
<path d="M69.3868 3.67743V8.39678H75.479V25.5581H80.3823V8.39678H86.4745V3.67743H69.3868Z" fill="#747474"/>
<path d="M87.259 11.9577L84.6052 16.6893H101.956L104.61 11.9577H87.259Z" fill="#747474"/>
<path d="M88.9874 25.5458H106.032V20.8081H93.9151V17.4555H88.9874V25.5458Z" fill="#747474"/>
<path d="M106.032 8.39677V3.66516H88.9874V11.1916H93.9151V8.39677H106.032Z" fill="#747474"/>
<path d="M0.165482 32.1897H1.7958C2.01556 32.1897 2.23494 32.2082 2.45161 32.2449C2.67012 32.2817 2.87874 32.3631 3.06451 32.4839C3.24125 32.5999 3.38654 32.7578 3.48742 32.9436C3.59542 33.1836 3.63975 33.4475 3.61613 33.7097C3.62334 33.9827 3.5344 34.2495 3.36484 34.4636C3.17171 34.6927 2.90134 34.8431 2.60484 34.8865C2.7801 34.9025 2.95177 34.9459 3.11355 35.0152C3.2628 35.0861 3.39782 35.1837 3.51193 35.3032C3.62852 35.4265 3.71827 35.5726 3.77548 35.7323C3.83819 35.9072 3.86932 36.0919 3.86742 36.2778C3.87865 36.5538 3.81286 36.8276 3.67742 37.0684C3.56113 37.2653 3.39928 37.4313 3.20548 37.5526C3.01721 37.6685 2.80959 37.7494 2.59258 37.7916C2.39067 37.8314 2.18545 37.8519 1.97967 37.8529H0.165482V32.1897ZM0.692578 34.6413H1.78968C2.01484 34.6474 2.23921 34.6121 2.45161 34.5371C2.59815 34.4948 2.73397 34.4216 2.85 34.3226C2.95252 34.2333 3.02702 34.1162 3.06451 33.9855C3.07857 33.8941 3.07857 33.8011 3.06451 33.7097C3.07068 33.5408 3.03709 33.3729 2.96645 33.2194C2.90419 33.0942 2.81145 32.9867 2.69677 32.9068C2.57667 32.8292 2.44392 32.7732 2.30451 32.7413C2.15192 32.7032 1.99585 32.6806 1.83871 32.6739H0.692578V34.6413ZM0.692578 37.3749H1.91838C2.17224 37.3833 2.42553 37.3459 2.66613 37.2645C2.81735 37.1998 2.95312 37.1037 3.06451 36.9826C3.16242 36.8843 3.23225 36.7615 3.26677 36.6271C3.3008 36.5179 3.31937 36.4044 3.32193 36.29C3.32572 36.1029 3.28363 35.9177 3.19935 35.7507C3.12422 35.6078 3.01728 35.4841 2.88677 35.3891C2.75706 35.2926 2.60896 35.2238 2.45161 35.1868C2.29182 35.143 2.12697 35.1203 1.96129 35.1194H0.692578V37.3749Z" fill="#747474"/>
<path d="M7.35484 32.1897H7.90033L10.2845 37.8529H9.67162L9.05871 36.3513H6.06162L5.41807 37.8529H4.86646L7.35484 32.1897ZM7.60613 32.7658L6.28839 35.8732H8.8871L7.60613 32.7658ZM7.31194 30.6881H7.86968L8.71549 31.871H8.19452L7.54484 31.0068L6.90129 31.871H6.42936L7.31194 30.6881Z" fill="#747474"/>
<path d="M12.1968 32.6739H10.26V32.1897H14.6606V32.6739H12.7239V37.8529H12.1968V32.6739Z" fill="#747474"/>
<path d="M15.9355 32.1897H16.4626V37.8529H15.9355V32.1897Z" fill="#747474"/>
<path d="M18.3871 32.1897H19.1777L21.2432 36.9458L23.2903 32.1897H24.0258V37.8529H23.4987V32.8639L21.3413 37.8529H21.1084L18.9142 32.8639V37.8529H18.3871V32.1897Z" fill="#747474"/>
<path d="M25.9197 32.1897H29.4194V32.6739H26.4529V34.6903H29.2048V35.1684H26.4529V37.3871H29.5174V37.8652H25.9197V32.1897Z" fill="#747474"/>
<path d="M31.0681 32.1897H31.7484L35.1929 37.1542V32.1897H35.72V37.8529H35.0581L31.6074 32.8945V37.8529H31.0803L31.0681 32.1897Z" fill="#747474"/>
<path d="M38.9439 32.6739H37.0132V32.1897H41.4077V32.6739H39.4771V37.8529H38.9439V32.6739Z" fill="#747474"/>
<path d="M45.1648 32.1897H48.6277V32.6739H45.6919V34.6903H48.4193V35.1684H45.6919V37.3871H48.7564V37.8652H45.1648V32.1897Z" fill="#747474"/>
<path d="M51.5635 32.6739H49.6452V32.1897H54.0458V32.6739H52.0968V37.8529H51.5697L51.5635 32.6739Z" fill="#747474"/>
<path d="M62.4487 37.4852C62.1275 37.669 61.7804 37.8033 61.419 37.8836C61.065 37.9626 60.7031 38.0017 60.3403 38C59.9333 38.0062 59.529 37.9312 59.1513 37.7794C58.8035 37.6418 58.4882 37.433 58.2258 37.1665C57.9616 36.8951 57.7533 36.5744 57.6129 36.2226C57.4648 35.8312 57.392 35.4153 57.3984 34.9968C57.3981 34.5988 57.4708 34.2041 57.6129 33.8323C57.7534 33.4824 57.9617 33.1637 58.2258 32.8945C58.4888 32.6287 58.8039 32.42 59.1513 32.2816C59.529 32.1298 59.9333 32.0548 60.3403 32.061C60.7153 32.044 61.0897 32.1049 61.44 32.24C61.7902 32.375 62.1086 32.5812 62.3752 32.8455L61.9952 33.2439C61.9035 33.1346 61.7961 33.0396 61.6765 32.9619C61.5517 32.8696 61.4158 32.7934 61.2719 32.7352C61.1239 32.6726 60.9699 32.6253 60.8123 32.5942C60.6575 32.5581 60.4992 32.5396 60.3403 32.539C59.998 32.5358 59.6585 32.6004 59.3413 32.729C59.0554 32.852 58.7985 33.0336 58.5874 33.2623C58.3751 33.491 58.2105 33.7598 58.1032 34.0529C57.9908 34.3675 57.9348 34.6995 57.9377 35.0336C57.9348 35.3696 57.9908 35.7036 58.1032 36.0203C58.2147 36.3004 58.3791 36.5563 58.5874 36.7742C58.7988 37.0011 59.0557 37.1807 59.3413 37.3013C59.6572 37.435 59.9973 37.5018 60.3403 37.4974C60.626 37.4989 60.9111 37.4743 61.1923 37.4239C61.449 37.3798 61.696 37.2906 61.9216 37.1603V35.2787H60.561V34.8007H62.4487V37.4852Z" fill="#747474"/>
<path d="M64.4039 32.1897H67.8668V32.6739H64.931V34.6903H67.6829V35.1684H64.931V37.3871H67.9955V37.8652H64.4039V32.1897ZM66.3713 30.6881H66.9842L65.9361 31.871H65.5377L66.3713 30.6881Z" fill="#747474"/>
<path d="M69.5461 32.1897H70.2264L73.671 37.1542V32.1897H74.1981V37.8529H73.5484L70.1039 32.8945V37.8529H69.5768L69.5461 32.1897Z" fill="#747474"/>
<path d="M76.1716 32.1897H76.6987V37.8529H76.1716V32.1897Z" fill="#747474"/>
<path d="M78.6477 32.1897H82.129V32.6739H79.1932V34.6903H81.9451V35.1684H79.1932V37.3871H82.2577V37.8652H78.6661L78.6477 32.1897Z" fill="#747474"/>
<path d="M90.9364 36.9703C90.6962 37.3118 90.3708 37.5844 89.9926 37.761C89.6278 37.9222 89.2329 38.0037 88.8342 38C88.4272 38.0049 88.0233 37.9299 87.6451 37.7794C87.2973 37.6418 86.9821 37.433 86.7197 37.1664C86.4554 36.8951 86.2472 36.5744 86.1068 36.2226C85.9587 35.8311 85.8859 35.4152 85.8922 34.9968C85.8889 34.5905 85.9617 34.1872 86.1068 33.8077C86.2473 33.4578 86.4556 33.1392 86.7197 32.87C86.9827 32.6041 87.2977 32.3955 87.6451 32.2571C88.0233 32.1065 88.4272 32.0316 88.8342 32.0364C89.2014 32.0337 89.5657 32.1024 89.9068 32.2387C90.2559 32.3835 90.5589 32.6209 90.7832 32.9252L90.3542 33.2868C90.1942 33.021 89.9598 32.8079 89.68 32.6739C89.4142 32.5535 89.1259 32.4909 88.8342 32.49C88.4919 32.4872 88.1525 32.5518 87.8351 32.68C87.5492 32.8029 87.2924 32.9846 87.0813 33.2132C86.8688 33.4407 86.706 33.71 86.6032 34.0039C86.4858 34.3173 86.4276 34.6498 86.4316 34.9845C86.4277 35.3212 86.4859 35.6557 86.6032 35.9713C86.706 36.2652 86.8688 36.5344 87.0813 36.7619C87.2926 36.9888 87.5495 37.1684 87.8351 37.289C88.1512 37.4221 88.4913 37.4888 88.8342 37.4852C88.9849 37.4842 89.1351 37.4657 89.2816 37.43C89.4391 37.397 89.5916 37.3434 89.7351 37.2706C89.8838 37.1968 90.0236 37.1063 90.1519 37.001C90.2892 36.8862 90.4089 36.752 90.5074 36.6026L90.9364 36.9703Z" fill="#747474"/>
<path d="M92.3032 32.1897H92.8303V37.8529H92.3032V32.1897Z" fill="#747474"/>
<path d="M93.9826 32.1897H94.5526L96.3913 37.1603L98.23 32.1897H98.7877L96.6364 37.8529H96.1093L93.9826 32.1897Z" fill="#747474"/>
<path d="M99.9032 32.1897H100.43V37.8529H99.9032V32.1897Z" fill="#747474"/>
<path d="M102.41 32.1897H102.968V37.3871H105.609V37.8652H102.441L102.41 32.1897Z" fill="#747474"/>
</g>
<defs>
<clipPath id="clip0_2_16">
<rect width="106.032" height="38" fill="white"/>
</clipPath>
</defs>
</svg>
