<?xml version="1.0" encoding="UTF-8" standalone="no"?>
<!-- Created with Inkscape (http://www.inkscape.org/) -->

<svg
   width="50mm"
   height="50mm"
   viewBox="0 0 50 50"
   version="1.1"
   id="svg1"
   xml:space="preserve"
   xmlns:xlink="http://www.w3.org/1999/xlink"
   xmlns="http://www.w3.org/2000/svg"
   xmlns:svg="http://www.w3.org/2000/svg"><defs
     id="defs1"><linearGradient
       id="linearGradient5"><stop
         style="stop-color:#f8d648;stop-opacity:1;"
         offset="0"
         id="stop5" /><stop
         style="stop-color:#f61f88;stop-opacity:1;"
         offset="0.5"
         id="stop352" /><stop
         style="stop-color:#9000dc;stop-opacity:1;"
         offset="1"
         id="stop6" /></linearGradient><linearGradient
       xlink:href="#linearGradient5"
       id="linearGradient6"
       x1="-4.0546842"
       y1="23.593582"
       x2="23.185631"
       y2="-3.6467335"
       gradientUnits="userSpaceOnUse" /></defs><g
     id="layer1"
     transform="matrix(4.7494536,0,0,4.7494536,-462.39316,-710.68373)"><g
       style="fill:none"
       id="g4"
       transform="matrix(0.26458333,0,0,0.26458333,100.1455,152.37526)"><circle
         style="fill:url(#linearGradient6);fill-opacity:1;stroke:none;stroke-width:0.861732;stroke-linejoin:miter;stroke-dasharray:none;stroke-opacity:1"
         id="path4"
         cx="9.3558102"
         cy="9.5370426"
         r="19.894539" /><g
         id="g352"
         transform="matrix(0.90429723,0,0,0.90429723,-1.4957566,-1.3145241)"><path
           fill-rule="evenodd"
           clip-rule="evenodd"
           d="m 12,7 c -2.76142,0 -5,2.23858 -5,5 0,2.7614 2.23858,5 5,5 2.7614,0 5,-2.2386 5,-5 0,-2.76142 -2.2386,-5 -5,-5 z m -3,5 c 0,1.6569 1.3431,3 3,3 1.6569,0 3,-1.3431 3,-3 0,-1.6569 -1.3431,-3 -3,-3 -1.6569,0 -3,1.3431 -3,3 z"
           fill="currentColor"
           id="path1"
           style="fill:#ffffff;fill-opacity:1" /><path
           d="m 18,5 c -0.5523,0 -1,0.44772 -1,1 0,0.55228 0.4477,1 1,1 0.5523,0 1,-0.44772 1,-1 0,-0.55228 -0.4477,-1 -1,-1 z"
           fill="currentColor"
           id="path2"
           style="fill:#ffffff;fill-opacity:1" /><path
           fill-rule="evenodd"
           clip-rule="evenodd"
           d="M 5,1 C 2.79086,1 1,2.79086 1,5 v 14 c 0,2.2091 1.79086,4 4,4 h 14 c 2.2091,0 4,-1.7909 4,-4 V 5 C 23,2.79086 21.2091,1 19,1 Z M 19,3 H 5 C 3.89543,3 3,3.89543 3,5 v 14 c 0,1.1046 0.89543,2 2,2 h 14 c 1.1046,0 2,-0.8954 2,-2 V 5 C 21,3.89543 20.1046,3 19,3 Z"
           fill="currentColor"
           id="path3"
           style="fill:#ffffff;fill-opacity:1" /></g></g></g></svg>
